<?xml version="1.0" standalone="no"?>
<!DOCTYPE svg PUBLIC "-//W3C//DTD SVG 1.1//EN" "http://www.w3.org/Graphics/SVG/1.1/DTD/svg11.dtd">
<svg width="100%" height="100%" viewBox="0 0 431 224" version="1.1" xmlns="http://www.w3.org/2000/svg" xmlns:xlink="http://www.w3.org/1999/xlink" xml:space="preserve" style="fill-rule:evenodd;clip-rule:evenodd;stroke-miterlimit:1.41421;">
    <g transform="matrix(1,0,0,1,8.09604,7.39677)">
        <g transform="matrix(1,0,0,1,84,-99.8)">
            <g transform="matrix(1,0,0,1,-4,-6)">
                <path d="M-3.5,223.1C-8.9,223.1 -13.1,224.8 -16.2,228.3C-19.3,231.7 -20.8,236.4 -20.8,242.4C-20.8,248.5 -19.3,253.3 -16.4,256.6C-13.5,260 -9.3,261.7 -3.9,261.7C-0.3,261.7 3,261.2 6,260.3L6,262.9C3.2,263.9 -0.4,264.4 -4.6,264.4C-10.6,264.4 -15.4,262.5 -18.8,258.6C-22.3,254.7 -24,249.3 -24,242.3C-24,237.9 -23.2,234.1 -21.5,230.8C-19.8,227.5 -17.5,224.9 -14.4,223.1C-11.3,221.3 -7.7,220.4 -3.6,220.4C0.6,220.4 4.3,221.2 7.6,222.7L6.4,225.4C3.2,223.8 -0.1,223.1 -3.5,223.1Z" style="fill:white;fill-rule:nonzero;stroke-width:1px;stroke:white;"/>
                <rect x="14.8" y="218.2" width="2.9" height="45.6" style="fill:white;fill-rule:nonzero;stroke-width:1px;stroke:white;"/>
                <path d="M54.7,247.8C54.7,253 53.4,257.1 50.9,260C48.4,262.9 44.9,264.4 40.5,264.4C37.7,264.4 35.2,263.7 33.1,262.4C31,261.1 29.3,259.1 28.2,256.6C27.1,254.1 26.5,251.2 26.5,247.9C26.5,242.7 27.8,238.7 30.3,235.8C32.8,232.9 36.3,231.4 40.7,231.4C45.1,231.4 48.5,232.9 51,235.8C53.5,238.7 54.7,242.7 54.7,247.8ZM29.5,247.8C29.5,252.2 30.5,255.6 32.4,258C34.3,260.5 37,261.7 40.6,261.7C44.1,261.7 46.8,260.5 48.8,258C50.8,255.5 51.7,252.1 51.7,247.8C51.7,243.4 50.7,240 48.8,237.6C46.9,235.2 44.1,234 40.6,234C37.1,234 34.4,235.2 32.5,237.6C30.6,240 29.5,243.4 29.5,247.8Z" style="fill:white;fill-rule:nonzero;stroke-width:1px;stroke:white;"/>
                <path d="M66,232L66,252.6C66,255.8 66.7,258.1 68,259.6C69.3,261.1 71.4,261.8 74.3,261.8C78.1,261.8 80.9,260.8 82.7,258.9C84.5,257 85.4,253.9 85.4,249.6L85.4,232L88.3,232L88.3,263.8L85.8,263.8L85.3,259.4L85.1,259.4C83,262.7 79.3,264.4 74.1,264.4C66.9,264.4 63.2,260.5 63.2,252.8L63.2,232L66,232Z" style="fill:white;fill-rule:nonzero;stroke-width:1px;stroke:white;"/>
                <path d="M110.5,231.3C112.8,231.3 114.8,231.7 116.5,232.6C118.2,233.5 119.7,234.9 121,236.9L121.2,236.9C121.1,234.4 121,232 121,229.7L121,218.2L123.9,218.2L123.9,263.8L122,263.8L121.3,258.9L121.1,258.9C118.7,262.5 115.2,264.3 110.7,264.3C106.3,264.3 102.9,262.9 100.6,260.2C98.3,257.5 97.1,253.5 97.1,248.2C97.1,242.7 98.3,238.5 100.6,235.6C102.9,232.7 106.1,231.3 110.5,231.3ZM110.5,234C107,234 104.4,235.2 102.7,237.7C101,240.2 100.1,243.7 100.1,248.3C100.1,257.3 103.6,261.8 110.6,261.8C114.2,261.8 116.8,260.8 118.5,258.7C120.2,256.6 121,253.2 121,248.4L121,247.9C121,243 120.2,239.4 118.5,237.3C116.8,235.2 114.2,234 110.5,234Z" style="fill:white;fill-rule:nonzero;stroke-width:1px;stroke:white;"/>
                <path d="M153.4,263.8L141,228L140.8,228C141.1,233.3 141.3,238.3 141.3,242.9L141.3,263.7L134.9,263.7L134.9,220.9L144.8,220.9L156.7,255L156.9,255L169.1,220.9L179,220.9L179,263.7L172.3,263.7L172.3,242.5C172.3,240.4 172.4,237.6 172.5,234.2C172.6,230.8 172.7,228.7 172.8,228L172.6,228L159.7,263.7L153.4,263.7L153.4,263.8Z" style="fill:white;fill-rule:nonzero;stroke-width:1px;stroke:white;"/>
                <path d="M205.1,263.8L198.1,263.8L198.1,227L185.5,227L185.5,221L217.7,221L217.7,227L205.1,227L205.1,263.8Z" style="fill:white;fill-rule:nonzero;stroke-width:1px;stroke:white;"/>
                <path d="M250.8,263.8L246.5,251.9L230.1,251.9L225.9,263.8L218.5,263.8L234.5,220.8L242.1,220.8L258.1,263.8L250.8,263.8ZM244.7,245.9L240.7,234.2C240.4,233.4 240,232.2 239.5,230.5C239,228.8 238.6,227.6 238.4,226.8C237.9,229.2 237.1,231.8 236.1,234.7L232.2,245.9L244.7,245.9Z" style="fill:white;fill-rule:nonzero;stroke-width:1px;stroke:white;"/>
            </g>
        </g>
        <g transform="matrix(1,0,0,1,84,-99.8)">
            <g transform="matrix(1,0,0,1,-4,-6)">
                <path d="M-6.043,317.503L-6.346,317.502L-6.659,317.5L-7.163,317.493L-7.665,317.483L-8.167,317.47L-8.667,317.454L-9.167,317.435L-9.666,317.412L-10.165,317.387L-10.662,317.358L-11.159,317.326L-11.655,317.292L-12.149,317.254L-12.644,317.213L-13.137,317.168L-13.629,317.121L-14.121,317.071L-14.612,317.018L-15.101,316.962L-15.59,316.902L-16.078,316.84L-16.565,316.775L-17.051,316.706L-17.536,316.635L-18.02,316.561L-18.503,316.483L-18.985,316.403L-19.467,316.32L-19.947,316.234L-20.426,316.145L-20.904,316.053L-21.381,315.958L-21.857,315.86L-22.332,315.76L-22.806,315.656L-23.279,315.55L-23.75,315.441L-24.221,315.328L-24.69,315.214L-25.159,315.096L-25.626,314.975L-26.092,314.852L-26.557,314.726L-27.021,314.597L-27.483,314.465L-27.944,314.33L-28.405,314.193L-28.864,314.053L-29.322,313.91L-29.778,313.764L-30.233,313.616L-30.687,313.465L-31.14,313.312L-31.592,313.155L-32.042,312.996L-32.491,312.834L-32.939,312.67L-33.385,312.503L-33.83,312.333L-34.274,312.161L-34.716,311.986L-35.157,311.808L-35.597,311.628L-36.035,311.445L-36.472,311.26L-36.908,311.072L-37.342,310.882L-37.775,310.689L-38.206,310.493L-38.636,310.295L-39.065,310.094L-39.492,309.891L-39.917,309.685L-40.342,309.477L-40.764,309.266L-41.185,309.053L-41.605,308.838L-42.023,308.62L-42.44,308.399L-42.855,308.176L-43.269,307.951L-43.681,307.723L-44.092,307.493L-44.501,307.26L-44.908,307.025L-45.314,306.788L-45.718,306.548L-46.121,306.306L-46.522,306.062L-46.922,305.815L-47.32,305.566L-47.716,305.314L-48.111,305.06L-48.504,304.804L-48.895,304.546L-49.284,304.285L-49.672,304.023L-50.059,303.757L-50.443,303.49L-50.826,303.22L-51.207,302.948L-51.587,302.674L-51.965,302.398L-52.341,302.119L-52.715,301.839L-53.087,301.556L-53.458,301.271L-53.827,300.983L-54.194,300.694L-54.559,300.402L-54.923,300.109L-55.285,299.813L-55.644,299.515L-56.003,299.215L-56.359,298.913L-56.713,298.609L-57.066,298.302L-57.416,297.994L-57.765,297.683L-58.112,297.371L-58.457,297.056L-58.8,296.74L-59.141,296.421L-59.48,296.101L-59.818,295.778L-60.153,295.453L-60.486,295.127L-60.818,294.798L-61.147,294.468L-61.475,294.135L-61.8,293.801L-62.124,293.464L-62.445,293.126L-62.765,292.786L-63.082,292.444L-63.398,292.099L-63.711,291.754L-64.022,291.406L-64.332,291.056L-64.639,290.704L-64.944,290.351L-65.247,289.996L-65.548,289.639L-65.847,289.28L-66.143,288.919L-66.438,288.556L-66.73,288.192L-67.021,287.826L-67.309,287.458L-67.595,287.088L-67.879,286.717L-68.16,286.344L-68.44,285.969L-68.717,285.592L-68.992,285.214L-69.265,284.834L-69.535,284.452L-69.804,284.068L-70.07,283.683L-70.333,283.296L-70.595,282.908L-70.854,282.518L-71.111,282.126L-71.366,281.732L-71.618,281.337L-71.868,280.941L-72.116,280.542L-72.362,280.142L-72.605,279.741L-72.845,279.338L-73.084,278.933L-73.32,278.527L-73.553,278.119L-73.785,277.71L-74.013,277.299L-74.24,276.887L-74.464,276.473L-74.685,276.057L-74.905,275.64L-75.121,275.222L-75.336,274.802L-75.547,274.381L-75.757,273.958L-75.963,273.534L-76.168,273.108L-76.37,272.681L-76.569,272.253L-76.766,271.823L-76.96,271.392L-77.152,270.959L-77.341,270.525L-77.527,270.089L-77.711,269.653L-77.893,269.215L-78.072,268.775L-78.248,268.334L-78.421,267.892L-78.592,267.449L-78.761,267.004L-78.927,266.558L-79.09,266.111L-79.25,265.662L-79.408,265.212L-79.563,264.761L-79.715,264.309L-79.865,263.856L-80.012,263.401L-80.156,262.945L-80.298,262.488L-80.437,262.029L-80.573,261.57L-80.706,261.109L-80.837,260.647L-80.965,260.184L-81.09,259.72L-81.212,259.255L-81.331,258.789L-81.448,258.321L-81.562,257.853L-81.673,257.383L-81.781,256.912L-81.886,256.441L-81.988,255.968L-82.088,255.494L-82.185,255.019L-82.278,254.543L-82.369,254.066L-82.457,253.588L-82.542,253.109L-82.625,252.629L-82.704,252.148L-82.78,251.667L-82.853,251.184L-82.924,250.7L-82.991,250.216L-83.056,249.73L-83.117,249.244L-83.175,248.756L-83.231,248.268L-83.283,247.779L-83.332,247.289L-83.379,246.798L-83.422,246.307L-83.462,245.814L-83.499,245.321L-83.534,244.827L-83.565,244.332L-83.592,243.836L-83.617,243.34L-83.639,242.843L-83.658,242.345L-83.673,241.846L-83.685,241.347L-83.695,240.847L-83.701,240.346L-83.704,239.845L-83.703,239.342L-83.7,238.832L-83.692,238.322L-83.681,237.82L-83.666,237.318L-83.649,236.818L-83.628,236.318L-83.605,235.819L-83.578,235.321L-83.548,234.824L-83.515,234.327L-83.479,233.831L-83.44,233.337L-83.398,232.843L-83.353,232.349L-83.304,231.857L-83.253,231.366L-83.199,230.875L-83.141,230.385L-83.081,229.897L-83.018,229.409L-82.951,228.922L-82.882,228.436L-82.809,227.951L-82.734,227.467L-82.656,226.984L-82.575,226.502L-82.491,226.021L-82.403,225.541L-82.313,225.062L-82.221,224.584L-82.125,224.107L-82.026,223.631L-81.924,223.157L-81.82,222.683L-81.713,222.21L-81.603,221.739L-81.49,221.268L-81.374,220.799L-81.255,220.331L-81.134,219.864L-81.009,219.398L-80.882,218.933L-80.753,218.469L-80.62,218.007L-80.485,217.546L-80.347,217.085L-80.206,216.627L-80.062,216.169L-79.916,215.712L-79.767,215.257L-79.615,214.803L-79.461,214.351L-79.304,213.899L-79.144,213.449L-78.982,213L-78.816,212.553L-78.649,212.106L-78.478,211.661L-78.305,211.218L-78.13,210.775L-77.952,210.334L-77.771,209.895L-77.588,209.457L-77.402,209.02L-77.213,208.584L-77.022,208.15L-76.828,207.717L-76.632,207.286L-76.434,206.856L-76.232,206.428L-76.029,206.001L-75.823,205.575L-75.614,205.151L-75.403,204.728L-75.189,204.307L-74.973,203.888L-74.755,203.469L-74.534,203.053L-74.31,202.638L-74.085,202.224L-73.856,201.812L-73.626,201.401L-73.393,200.992L-73.157,200.585L-72.92,200.179L-72.68,199.775L-72.437,199.372L-72.192,198.971L-71.945,198.571L-71.696,198.173L-71.444,197.777L-71.19,197.383L-70.934,196.99L-70.675,196.598L-70.414,196.209L-70.151,195.821L-69.886,195.434L-69.618,195.05L-69.348,194.667L-69.076,194.286L-68.802,193.906L-68.526,193.528L-68.247,193.152L-67.966,192.778L-67.683,192.405L-67.398,192.035L-67.11,191.666L-66.821,191.298L-66.529,190.933L-66.235,190.569L-65.94,190.208L-65.642,189.848L-65.341,189.489L-65.039,189.133L-64.735,188.779L-64.429,188.426L-64.12,188.075L-63.81,187.726L-63.497,187.379L-63.183,187.034L-62.866,186.691L-62.548,186.35L-62.227,186.01L-61.905,185.673L-61.58,185.337L-61.253,185.004L-60.925,184.672L-60.595,184.342L-60.262,184.015L-59.928,183.689L-59.592,183.365L-59.253,183.044L-58.913,182.724L-58.571,182.406L-58.227,182.091L-57.882,181.777L-57.534,181.465L-57.185,181.156L-56.833,180.848L-56.48,180.543L-56.125,180.24L-55.768,179.938L-55.409,179.639L-55.049,179.342L-54.687,179.048L-54.323,178.755L-53.957,178.464L-53.589,178.176L-53.22,177.889L-52.849,177.605L-52.476,177.323L-52.101,177.044L-51.725,176.766L-51.347,176.491L-50.967,176.217L-50.586,175.946L-50.203,175.678L-49.818,175.411L-49.431,175.147L-49.043,174.885L-48.654,174.625L-48.262,174.368L-47.869,174.113L-47.475,173.86L-47.078,173.61L-46.681,173.361L-46.281,173.115L-45.88,172.872L-45.477,172.631L-45.073,172.392L-44.668,172.155L-44.26,171.921L-43.852,171.689L-43.441,171.46L-43.029,171.233L-42.616,171.009L-42.201,170.787L-41.785,170.567L-41.367,170.35L-40.948,170.135L-40.527,169.922L-40.105,169.713L-39.682,169.505L-39.257,169.3L-38.83,169.098L-38.402,168.898L-37.973,168.701L-37.542,168.506L-37.11,168.313L-36.677,168.124L-36.242,167.936L-35.806,167.752L-35.369,167.569L-34.93,167.39L-34.49,167.213L-34.049,167.039L-33.606,166.867L-33.162,166.698L-32.717,166.531L-32.27,166.368L-31.822,166.206L-31.373,166.048L-30.923,165.892L-30.472,165.739L-30.019,165.588L-29.565,165.44L-29.11,165.295L-28.654,165.153L-28.196,165.013L-27.737,164.876L-27.278,164.742L-26.817,164.611L-26.354,164.482L-25.891,164.356L-25.427,164.233L-24.961,164.113L-24.495,163.995L-24.027,163.881L-23.558,163.769L-23.089,163.66L-22.618,163.553L-22.146,163.45L-21.673,163.35L-21.199,163.252L-20.724,163.157L-20.248,163.065L-19.771,162.976L-19.293,162.89L-18.814,162.807L-18.334,162.727L-17.854,162.65L-17.372,162.575L-16.889,162.504L-16.405,162.435L-15.921,162.37L-15.436,162.308L-14.949,162.248L-14.462,162.192L-13.974,162.138L-13.485,162.088L-12.995,162.04L-12.505,161.996L-12.013,161.954L-11.521,161.916L-11.028,161.881L-10.535,161.849L-10.04,161.82L-9.545,161.794L-9.049,161.771L-8.552,161.751L-8.054,161.734L-7.556,161.721L-7.057,161.71L-6.558,161.703L-6.057,161.699L-5.556,161.698L-5.007,161.7L-4.542,161.713L-4.13,161.726L-3.718,161.74L-3.307,161.757L-2.895,161.776L-2.484,161.796L-2.073,161.818L-1.662,161.842L-1.251,161.868L-0.841,161.896L-0.431,161.926L-0.021,161.958L0.389,161.992L0.798,162.027L1.207,162.065L1.318,162.075L1.331,161.946L1.374,161.531L1.42,161.117L1.468,160.704L1.519,160.291L1.572,159.879L1.628,159.468L1.687,159.058L1.747,158.648L1.811,158.24L1.877,157.832L1.945,157.425L2.016,157.018L2.089,156.613L2.165,156.208L2.243,155.805L2.324,155.402L2.407,155L2.493,154.599L2.581,154.199L2.671,153.8L2.764,153.402L2.859,153.004L2.957,152.608L3.057,152.212L3.159,151.818L3.264,151.424L3.371,151.032L3.48,150.64L3.592,150.249L3.706,149.86L3.823,149.471L3.941,149.084L4.062,148.697L4.186,148.311L4.311,147.927L4.439,147.544L4.569,147.161L4.702,146.78L4.837,146.4L4.974,146.02L5.113,145.642L5.254,145.265L5.398,144.889L5.544,144.515L5.692,144.141L5.842,143.768L5.995,143.397L6.15,143.027L6.306,142.658L6.465,142.29L6.627,141.923L6.79,141.558L6.955,141.193L7.123,140.83L7.293,140.468L7.465,140.108L7.639,139.748L7.815,139.39L7.993,139.033L8.173,138.677L8.355,138.322L8.54,137.969L8.726,137.617L8.915,137.267L9.105,136.917L9.298,136.569L9.493,136.222L9.689,135.877L9.888,135.532L10.088,135.19L10.291,134.848L10.496,134.508L10.702,134.169L10.911,133.832L11.121,133.496L11.334,133.161L11.548,132.828L11.765,132.496L11.983,132.165L12.203,131.836L12.425,131.508L12.649,131.182L12.875,130.857L13.103,130.534L13.333,130.212L13.565,129.891L13.798,129.572L14.033,129.254L14.27,128.938L14.509,128.624L14.75,128.311L14.993,127.999L15.237,127.689L15.484,127.38L15.732,127.073L15.982,126.768L16.233,126.464L16.487,126.161L16.742,125.86L16.999,125.561L17.258,125.263L17.518,124.967L17.78,124.672L18.044,124.379L18.31,124.088L18.577,123.798L18.846,123.51L19.117,123.223L19.389,122.938L19.664,122.655L19.939,122.373L20.217,122.093L20.496,121.815L20.777,121.538L21.059,121.263L21.343,120.99L21.629,120.719L21.916,120.449L22.205,120.181L22.496,119.914L22.788,119.649L23.081,119.386L23.377,119.125L23.674,118.866L23.972,118.608L24.272,118.352L24.574,118.098L24.877,117.845L25.181,117.595L25.487,117.346L25.795,117.099L26.104,116.854L26.415,116.61L26.727,116.369L27.041,116.129L27.356,115.891L27.672,115.655L27.99,115.421L28.31,115.189L28.631,114.958L28.953,114.73L29.277,114.503L29.602,114.278L29.929,114.056L30.257,113.835L30.586,113.616L30.917,113.399L31.249,113.184L31.583,112.97L31.918,112.759L32.254,112.55L32.592,112.343L32.931,112.137L33.272,111.934L33.613,111.733L33.956,111.534L34.301,111.336L34.646,111.141L34.993,110.948L35.341,110.757L35.691,110.568L36.042,110.381L36.394,110.196L36.747,110.013L37.102,109.832L37.457,109.653L37.814,109.476L38.173,109.302L38.532,109.129L38.893,108.959L39.254,108.791L39.617,108.625L39.982,108.461L40.347,108.299L40.714,108.139L41.081,107.982L41.45,107.827L41.82,107.674L42.191,107.523L42.564,107.374L42.937,107.228L43.312,107.083L43.687,106.941L44.064,106.802L44.442,106.664L44.82,106.529L45.2,106.396L45.581,106.265L45.963,106.137L46.346,106.01L46.73,105.887L47.115,105.765L47.501,105.646L47.889,105.529L48.277,105.414L48.666,105.302L49.056,105.192L49.447,105.084L49.839,104.979L50.232,104.876L50.626,104.776L51.02,104.677L51.416,104.582L51.813,104.488L52.21,104.398L52.609,104.309L53.008,104.223L53.408,104.139L53.81,104.058L54.212,103.979L54.614,103.903L55.018,103.829L55.422,103.758L55.828,103.689L56.234,103.623L56.641,103.559L57.049,103.497L57.457,103.439L57.866,103.382L58.276,103.328L58.687,103.277L59.099,103.228L59.511,103.182L59.924,103.139L60.338,103.098L60.752,103.059L61.167,103.023L61.583,102.99L62,102.959L62.417,102.931L62.835,102.906L63.254,102.883L63.673,102.863L64.093,102.845L64.513,102.83L64.934,102.818L65.356,102.808L65.778,102.801L66.201,102.797L66.624,102.796L67.048,102.797L67.474,102.8L67.88,102.807L68.283,102.816L68.686,102.827L69.088,102.84L69.49,102.856L69.891,102.875L70.291,102.895L70.691,102.919L71.09,102.944L71.488,102.972L71.886,103.002L72.283,103.035L72.68,103.07L73.076,103.107L73.471,103.147L73.866,103.189L74.26,103.233L74.653,103.279L75.046,103.328L75.438,103.379L75.829,103.433L76.219,103.489L76.609,103.547L76.998,103.607L77.386,103.669L77.774,103.734L78.16,103.801L78.546,103.871L78.931,103.942L79.316,104.016L79.7,104.092L80.082,104.17L80.464,104.25L80.846,104.333L81.226,104.418L81.606,104.505L81.984,104.594L82.362,104.685L82.739,104.779L83.115,104.875L83.491,104.972L83.865,105.072L84.239,105.174L84.612,105.279L84.983,105.385L85.354,105.494L85.724,105.604L86.093,105.717L86.461,105.832L86.829,105.948L87.195,106.067L87.56,106.188L87.925,106.312L88.288,106.437L88.65,106.564L89.012,106.693L89.372,106.824L89.732,106.958L90.09,107.093L90.448,107.23L90.804,107.37L91.16,107.511L91.514,107.655L91.867,107.8L92.22,107.947L92.571,108.097L92.921,108.248L93.27,108.401L93.619,108.556L93.966,108.713L94.311,108.873L94.656,109.034L95,109.196L95.343,109.361L95.684,109.528L96.025,109.697L96.364,109.867L96.702,110.04L97.039,110.214L97.375,110.39L97.71,110.568L98.043,110.748L98.375,110.93L98.707,111.114L99.037,111.299L99.365,111.487L99.693,111.676L100.019,111.867L100.345,112.059L100.669,112.254L100.991,112.45L101.313,112.648L101.633,112.848L101.952,113.05L102.27,113.254L102.587,113.459L102.902,113.666L103.216,113.875L103.529,114.085L103.84,114.297L104.15,114.511L104.459,114.727L104.766,114.944L105.073,115.163L105.378,115.384L105.681,115.607L105.983,115.831L106.284,116.057L106.584,116.284L106.882,116.513L107.179,116.744L107.474,116.977L107.768,117.211L108.061,117.447L108.353,117.684L108.643,117.923L108.931,118.164L109.218,118.406L109.504,118.65L109.788,118.895L110.071,119.142L110.353,119.391L110.633,119.641L110.911,119.893L111.188,120.146L111.464,120.401L111.738,120.658L112.011,120.916L112.282,121.175L112.552,121.436L112.82,121.699L113.087,121.963L113.352,122.228L113.616,122.495L113.878,122.764L114.139,123.034L114.398,123.306L114.655,123.579L114.911,123.853L115.166,124.129L115.419,124.407L115.67,124.685L115.92,124.966L116.168,125.247L116.415,125.531L116.66,125.815L116.903,126.101L117.145,126.389L117.385,126.677L117.624,126.968L117.861,127.259L118.096,127.552L118.33,127.846L118.562,128.142L118.792,128.439L119.021,128.738L119.248,129.037L119.473,129.339L119.697,129.641L119.919,129.945L120.139,130.25L120.357,130.556L120.574,130.864L120.789,131.173L121.003,131.483L121.214,131.795L121.424,132.108L121.633,132.422L121.839,132.737L122.044,133.054L122.247,133.372L122.448,133.691L122.647,134.011L122.845,134.333L123.04,134.656L123.234,134.98L123.427,135.305L123.617,135.631L123.805,135.959L123.992,136.288L124.177,136.618L124.36,136.949L124.541,137.281L124.72,137.615L124.898,137.95L125.073,138.286L125.247,138.622L125.419,138.961L125.589,139.3L125.757,139.64L125.923,139.982L126.087,140.324L126.249,140.668L126.41,141.013L126.568,141.359L126.724,141.705L126.879,142.053L127.031,142.402L127.182,142.753L127.331,143.104L127.477,143.456L127.622,143.809L127.765,144.163L127.905,144.519L128.044,144.875L128.18,145.232L128.315,145.591L128.448,145.95L128.578,146.31L128.707,146.671L128.833,147.034L128.957,147.397L129.08,147.761L129.2,148.126L129.318,148.492L129.434,148.859L129.548,149.227L129.66,149.596L129.77,149.965L129.878,150.336L129.983,150.707L130.087,151.08L130.188,151.453L130.287,151.827L130.384,152.202L130.479,152.578L130.572,152.955L130.662,153.332L130.751,153.711L130.823,154.028L130.888,153.987L131.301,153.727L131.715,153.47L132.131,153.215L132.548,152.962L132.966,152.711L133.386,152.462L133.807,152.216L134.229,151.971L134.653,151.729L135.078,151.489L135.505,151.251L135.933,151.015L136.362,150.782L136.793,150.55L137.224,150.321L137.658,150.094L138.092,149.869L138.528,149.647L138.965,149.426L139.404,149.208L139.843,148.992L140.285,148.779L140.727,148.567L141.17,148.358L141.615,148.151L142.061,147.947L142.509,147.745L142.957,147.545L143.407,147.347L143.858,147.152L144.31,146.958L144.764,146.768L145.218,146.579L145.674,146.393L146.131,146.21L146.589,146.028L147.049,145.849L147.509,145.672L147.971,145.498L148.433,145.326L148.897,145.157L149.362,144.99L149.829,144.825L150.296,144.663L150.764,144.503L151.234,144.345L151.705,144.19L152.176,144.038L152.649,143.887L153.123,143.74L153.598,143.594L154.074,143.452L154.551,143.311L155.029,143.173L155.508,143.038L155.988,142.905L156.47,142.775L156.952,142.647L157.435,142.522L157.919,142.399L158.404,142.278L158.891,142.161L159.378,142.045L159.866,141.933L160.355,141.823L160.845,141.715L161.336,141.61L161.828,141.508L162.321,141.408L162.814,141.311L163.309,141.216L163.805,141.124L164.301,141.035L164.798,140.948L165.297,140.864L165.796,140.782L166.296,140.704L166.796,140.627L167.298,140.554L167.801,140.483L168.304,140.415L168.808,140.349L169.313,140.286L169.819,140.226L170.326,140.169L170.833,140.114L171.341,140.062L171.85,140.012L172.36,139.966L172.87,139.922L173.382,139.881L173.894,139.842L174.406,139.807L174.92,139.774L175.434,139.744L175.949,139.716L176.464,139.692L176.981,139.67L177.498,139.651L178.015,139.635L178.534,139.621L179.053,139.611L179.572,139.603L180.093,139.598L180.614,139.596L181.135,139.597L181.665,139.6L182.181,139.608L182.688,139.618L183.194,139.631L183.699,139.647L184.204,139.665L184.708,139.686L185.211,139.71L185.714,139.736L186.216,139.765L186.718,139.796L187.218,139.83L187.718,139.867L188.217,139.906L188.716,139.948L189.214,139.993L189.711,140.04L190.207,140.09L190.702,140.142L191.197,140.197L191.691,140.254L192.184,140.314L192.677,140.377L193.168,140.442L193.659,140.509L194.149,140.579L194.638,140.652L195.127,140.727L195.614,140.805L196.101,140.885L196.587,140.968L197.072,141.053L197.556,141.141L198.039,141.231L198.522,141.323L199.003,141.418L199.484,141.516L199.964,141.616L200.442,141.718L200.92,141.823L201.397,141.93L201.873,142.04L202.348,142.152L202.823,142.267L203.296,142.383L203.768,142.503L204.24,142.624L204.71,142.748L205.179,142.875L205.648,143.004L206.115,143.135L206.582,143.268L207.047,143.404L207.511,143.542L207.975,143.683L208.437,143.826L208.898,143.971L209.359,144.118L209.818,144.268L210.276,144.42L210.733,144.575L211.189,144.731L211.644,144.89L212.098,145.052L212.551,145.215L213.002,145.381L213.453,145.549L213.902,145.719L214.351,145.891L214.798,146.066L215.244,146.243L215.689,146.422L216.133,146.603L216.575,146.787L217.017,146.973L217.457,147.161L217.896,147.351L218.334,147.543L218.771,147.737L219.206,147.934L219.641,148.133L220.074,148.333L220.506,148.537L220.936,148.742L221.366,148.949L221.794,149.158L222.221,149.37L222.647,149.583L223.071,149.799L223.494,150.017L223.916,150.237L224.337,150.459L224.756,150.683L225.174,150.909L225.591,151.137L226.007,151.367L226.421,151.6L226.834,151.834L227.245,152.07L227.655,152.308L228.064,152.549L228.472,152.791L228.878,153.035L229.283,153.282L229.686,153.53L230.088,153.78L230.489,154.033L230.888,154.287L231.286,154.543L231.682,154.801L232.077,155.061L232.471,155.324L232.863,155.588L233.254,155.853L233.643,156.121L234.031,156.391L234.418,156.663L234.803,156.936L235.187,157.212L235.569,157.489L235.949,157.768L236.328,158.049L236.706,158.332L237.082,158.617L237.457,158.904L237.83,159.192L238.202,159.483L238.572,159.775L238.941,160.069L239.308,160.364L239.673,160.662L240.037,160.962L240.4,161.263L240.76,161.566L241.12,161.871L241.477,162.177L241.834,162.486L242.188,162.796L242.541,163.107L242.893,163.421L243.242,163.736L243.591,164.054L243.937,164.372L244.282,164.693L244.625,165.015L244.967,165.339L245.307,165.665L245.645,165.992L245.982,166.321L246.317,166.652L246.65,166.984L246.982,167.319L247.312,167.654L247.64,167.992L247.967,168.331L248.292,168.672L248.615,169.014L248.936,169.358L249.256,169.703L249.574,170.051L249.89,170.4L250.205,170.75L250.517,171.102L250.829,171.456L251.138,171.811L251.445,172.168L251.751,172.526L252.055,172.886L252.357,173.247L252.657,173.611L252.956,173.975L253.252,174.341L253.547,174.709L253.84,175.078L254.131,175.449L254.421,175.821L254.708,176.195L254.994,176.57L255.278,176.946L255.56,177.325L255.84,177.704L256.118,178.085L256.394,178.468L256.669,178.852L256.941,179.237L257.212,179.624L257.48,180.013L257.747,180.403L258.012,180.794L258.275,181.186L258.536,181.58L258.795,181.976L259.052,182.373L259.307,182.771L259.56,183.171L259.811,183.571L260.06,183.974L260.308,184.378L260.553,184.783L260.796,185.189L261.037,185.597L261.276,186.006L261.513,186.416L261.749,186.828L261.982,187.241L262.213,187.656L262.442,188.071L262.669,188.488L262.893,188.907L263.116,189.326L263.337,189.747L263.556,190.169L263.772,190.592L263.987,191.017L264.199,191.443L264.409,191.87L264.617,192.298L264.823,192.728L265.027,193.159L265.229,193.591L265.428,194.024L265.626,194.458L265.821,194.894L266.014,195.33L266.205,195.769L266.394,196.208L266.58,196.648L266.765,197.089L266.947,197.532L267.127,197.976L267.304,198.421L267.48,198.867L267.653,199.314L267.824,199.762L267.993,200.211L268.16,200.662L268.324,201.113L268.486,201.566L268.646,202.02L268.803,202.474L268.958,202.93L269.111,203.387L269.262,203.845L269.41,204.304L269.556,204.764L269.7,205.225L269.736,205.343L270.035,205.325L270.344,205.308L270.654,205.292L270.964,205.277L271.274,205.264L271.585,205.252L271.896,205.241L272.208,205.231L272.519,205.223L272.832,205.216L273.144,205.21L273.458,205.206L273.771,205.203L274.085,205.201L274.431,205.2L274.87,205.205L275.283,205.213L275.696,205.224L276.108,205.237L276.52,205.252L276.93,205.27L277.34,205.291L277.75,205.314L278.159,205.34L278.567,205.369L278.974,205.4L279.381,205.433L279.787,205.469L280.192,205.508L280.597,205.549L281.001,205.593L281.404,205.639L281.806,205.687L282.208,205.739L282.609,205.792L283.009,205.848L283.408,205.907L283.807,205.968L284.204,206.031L284.601,206.097L284.997,206.165L285.392,206.236L285.787,206.309L286.18,206.385L286.573,206.462L286.964,206.543L287.355,206.625L287.745,206.711L288.134,206.798L288.523,206.888L288.91,206.98L289.296,207.074L289.682,207.171L290.066,207.27L290.45,207.372L290.832,207.476L291.214,207.582L291.594,207.69L291.974,207.801L292.353,207.914L292.73,208.029L293.107,208.146L293.483,208.266L293.857,208.388L294.231,208.512L294.603,208.639L294.975,208.767L295.345,208.898L295.715,209.031L296.083,209.167L296.45,209.304L296.816,209.444L297.181,209.586L297.545,209.729L297.908,209.876L298.27,210.024L298.63,210.174L298.99,210.327L299.348,210.481L299.705,210.638L300.061,210.797L300.416,210.958L300.769,211.121L301.122,211.286L301.473,211.453L301.823,211.623L302.172,211.794L302.519,211.967L302.866,212.143L303.211,212.32L303.555,212.5L303.898,212.681L304.239,212.865L304.579,213.05L304.918,213.238L305.256,213.427L305.592,213.619L305.927,213.812L306.261,214.007L306.593,214.205L306.924,214.404L307.254,214.605L307.582,214.808L307.909,215.013L308.235,215.22L308.559,215.429L308.882,215.64L309.204,215.852L309.524,216.067L309.843,216.283L310.161,216.501L310.477,216.721L310.791,216.943L311.105,217.167L311.417,217.393L311.727,217.62L312.036,217.849L312.343,218.08L312.65,218.313L312.954,218.547L313.257,218.784L313.559,219.022L313.859,219.262L314.158,219.503L314.455,219.747L314.751,219.992L315.045,220.239L315.338,220.487L315.629,220.738L315.918,220.99L316.206,221.244L316.493,221.499L316.778,221.756L317.061,222.015L317.343,222.275L317.623,222.537L317.902,222.801L318.179,223.067L318.455,223.334L318.729,223.602L319.001,223.873L319.271,224.145L319.54,224.418L319.808,224.693L320.074,224.97L320.337,225.248L320.6,225.528L320.861,225.81L321.12,226.093L321.377,226.377L321.633,226.663L321.887,226.951L322.139,227.24L322.39,227.531L322.639,227.823L322.886,228.117L323.131,228.412L323.375,228.708L323.617,229.007L323.857,229.306L324.095,229.607L324.332,229.91L324.567,230.214L324.8,230.519L325.031,230.826L325.261,231.135L325.488,231.444L325.714,231.756L325.938,232.068L326.16,232.382L326.38,232.697L326.599,233.014L326.816,233.332L327.03,233.652L327.243,233.973L327.454,234.295L327.663,234.618L327.871,234.943L328.076,235.269L328.279,235.597L328.481,235.926L328.681,236.256L328.878,236.587L329.074,236.92L329.268,237.254L329.46,237.589L329.65,237.926L329.837,238.263L330.023,238.602L330.207,238.943L330.389,239.284L330.569,239.627L330.747,239.971L330.923,240.316L331.097,240.662L331.269,241.01L331.439,241.358L331.606,241.708L331.772,242.059L331.936,242.411L332.097,242.765L332.257,243.119L332.414,243.475L332.57,243.832L332.723,244.19L332.874,244.549L333.023,244.909L333.17,245.27L333.315,245.632L333.457,245.996L333.598,246.36L333.736,246.725L333.872,247.092L334.006,247.46L334.138,247.828L334.267,248.198L334.395,248.569L334.52,248.94L334.643,249.313L334.764,249.686L334.882,250.061L334.999,250.437L335.113,250.813L335.225,251.191L335.334,251.569L335.441,251.949L335.546,252.329L335.649,252.711L335.75,253.093L335.848,253.476L335.944,253.86L336.037,254.245L336.128,254.631L336.217,255.018L336.304,255.405L336.388,255.794L336.47,256.183L336.549,256.573L336.626,256.964L336.701,257.356L336.774,257.748L336.844,258.141L336.911,258.535L336.976,258.93L337.039,259.326L337.099,259.723L337.157,260.12L337.213,260.518L337.266,260.916L337.316,261.316L337.365,261.716L337.41,262.117L337.454,262.519L337.494,262.921L337.532,263.324L337.568,263.727L337.601,264.132L337.632,264.537L337.66,264.942L337.686,265.349L337.709,265.755L337.73,266.163L337.748,266.571L337.763,266.98L337.776,267.389L337.787,267.799L337.794,268.209L337.8,268.62L337.802,269.031L337.802,269.444L337.8,269.838L325.8,269.762L325.802,269.407L325.802,269.071L325.8,268.735L325.796,268.399L325.79,268.065L325.781,267.731L325.771,267.397L325.758,267.064L325.743,266.731L325.726,266.399L325.707,266.068L325.687,265.737L325.664,265.407L325.639,265.077L325.612,264.748L325.583,264.42L325.551,264.092L325.518,263.765L325.483,263.438L325.446,263.112L325.407,262.787L325.366,262.462L325.323,262.138L325.278,261.814L325.23,261.491L325.181,261.169L325.13,260.848L325.077,260.527L325.023,260.206L324.966,259.887L324.907,259.568L324.846,259.25L324.784,258.932L324.719,258.615L324.653,258.299L324.584,257.984L324.514,257.669L324.442,257.355L324.368,257.042L324.292,256.73L324.214,256.418L324.134,256.107L324.053,255.797L323.969,255.487L323.884,255.178L323.797,254.87L323.708,254.563L323.617,254.257L323.525,253.951L323.43,253.646L323.334,253.342L323.236,253.039L323.136,252.736L323.035,252.434L322.931,252.133L322.826,251.833L322.719,251.534L322.61,251.236L322.5,250.938L322.387,250.641L322.273,250.346L322.158,250.05L322.04,249.757L321.921,249.463L321.8,249.171L321.677,248.879L321.553,248.588L321.426,248.299L321.299,248.01L321.169,247.722L321.038,247.435L320.905,247.149L320.77,246.864L320.634,246.58L320.496,246.297L320.357,246.014L320.215,245.733L320.072,245.453L319.928,245.173L319.782,244.895L319.634,244.617L319.484,244.341L319.333,244.065L319.181,243.791L319.026,243.517L318.87,243.245L318.713,242.974L318.554,242.703L318.393,242.434L318.231,242.165L318.067,241.898L317.902,241.632L317.735,241.367L317.566,241.103L317.396,240.84L317.225,240.578L317.052,240.317L316.877,240.057L316.701,239.799L316.523,239.541L316.344,239.285L316.163,239.029L315.981,238.775L315.797,238.522L315.612,238.27L315.426,238.019L315.238,237.77L315.048,237.521L314.857,237.274L314.665,237.028L314.471,236.783L314.275,236.539L314.079,236.297L313.88,236.056L313.681,235.815L313.48,235.576L313.277,235.339L313.073,235.102L312.868,234.867L312.662,234.633L312.454,234.4L312.244,234.169L312.034,233.939L311.822,233.71L311.608,233.482L311.393,233.256L311.177,233.031L310.96,232.807L310.741,232.584L310.521,232.363L310.299,232.143L310.076,231.925L309.853,231.708L309.627,231.492L309.4,231.277L309.172,231.064L308.943,230.852L308.713,230.642L308.481,230.433L308.248,230.225L308.014,230.019L307.778,229.814L307.542,229.61L307.304,229.408L307.064,229.207L306.824,229.008L306.582,228.81L306.34,228.614L306.096,228.419L305.85,228.225L305.604,228.033L305.356,227.842L305.108,227.653L304.858,227.465L304.606,227.279L304.354,227.094L304.101,226.911L303.846,226.729L303.591,226.549L303.334,226.37L303.076,226.193L302.817,226.017L302.557,225.843L302.296,225.67L302.033,225.499L301.77,225.33L301.505,225.162L301.24,224.995L300.973,224.83L300.705,224.667L300.436,224.505L300.167,224.345L299.896,224.186L299.624,224.029L299.351,223.874L299.077,223.72L298.802,223.568L298.526,223.417L298.249,223.269L297.971,223.121L297.692,222.976L297.412,222.832L297.131,222.689L296.849,222.549L296.566,222.41L296.282,222.272L295.997,222.137L295.711,222.003L295.424,221.871L295.136,221.74L294.848,221.611L294.558,221.484L294.268,221.359L293.976,221.235L293.684,221.113L293.391,220.993L293.097,220.874L292.801,220.758L292.505,220.643L292.209,220.53L291.911,220.418L291.612,220.308L291.313,220.201L291.013,220.094L290.712,219.99L290.41,219.888L290.107,219.787L289.803,219.688L289.499,219.591L289.193,219.496L288.887,219.402L288.58,219.311L288.272,219.221L287.964,219.133L287.654,219.047L287.344,218.963L287.033,218.881L286.721,218.8L286.409,218.722L286.095,218.645L285.781,218.571L285.466,218.498L285.151,218.427L284.834,218.358L284.517,218.291L284.2,218.225L283.881,218.162L283.562,218.101L283.242,218.042L282.921,217.984L282.599,217.929L282.277,217.875L281.954,217.824L281.631,217.774L281.306,217.727L280.981,217.681L280.656,217.638L280.329,217.596L280.002,217.557L279.675,217.519L279.346,217.484L279.017,217.45L278.688,217.419L278.357,217.39L278.026,217.362L277.695,217.337L277.362,217.314L277.03,217.293L276.696,217.274L276.362,217.257L276.027,217.242L275.692,217.229L275.356,217.219L275.019,217.21L274.682,217.204L274.369,217.2L274.134,217.201L273.868,217.202L273.604,217.205L273.34,217.209L273.076,217.213L272.813,217.219L272.55,217.226L272.288,217.234L272.027,217.243L271.766,217.254L271.505,217.265L271.245,217.277L270.985,217.29L270.726,217.305L270.467,217.32L270.208,217.337L269.95,217.355L269.692,217.373L269.434,217.393L269.176,217.414L268.919,217.436L268.661,217.459L268.404,217.483L268.147,217.508L267.89,217.534L267.634,217.561L267.377,217.59L267.12,217.619L266.863,217.649L266.607,217.681L266.35,217.714L260.774,218.445L259.372,212.826L259.268,212.416L259.161,212.007L259.052,211.599L258.941,211.192L258.829,210.785L258.714,210.379L258.597,209.975L258.478,209.571L258.357,209.168L258.234,208.765L258.109,208.364L257.982,207.964L257.853,207.564L257.722,207.166L257.589,206.768L257.454,206.372L257.316,205.976L257.177,205.581L257.036,205.187L256.893,204.794L256.749,204.402L256.602,204.011L256.453,203.621L256.302,203.232L256.149,202.844L255.995,202.456L255.838,202.07L255.679,201.685L255.519,201.301L255.357,200.918L255.192,200.535L255.026,200.154L254.858,199.774L254.688,199.395L254.516,199.017L254.343,198.64L254.167,198.263L253.99,197.889L253.81,197.515L253.629,197.142L253.446,196.77L253.261,196.399L253.074,196.03L252.886,195.661L252.696,195.293L252.503,194.927L252.309,194.562L252.114,194.197L251.916,193.834L251.717,193.472L251.515,193.111L251.313,192.752L251.108,192.393L250.901,192.036L250.693,191.679L250.483,191.324L250.271,190.97L250.057,190.617L249.842,190.266L249.625,189.915L249.406,189.566L249.186,189.218L248.964,188.871L248.74,188.525L248.514,188.181L248.287,187.838L248.058,187.495L247.827,187.155L247.595,186.815L247.361,186.477L247.125,186.14L246.887,185.804L246.648,185.469L246.407,185.136L246.165,184.804L245.921,184.473L245.675,184.143L245.428,183.815L245.179,183.488L244.928,183.162L244.676,182.838L244.422,182.515L244.167,182.193L243.91,181.873L243.652,181.554L243.391,181.236L243.13,180.919L242.866,180.604L242.601,180.291L242.335,179.978L242.067,179.667L241.797,179.358L241.526,179.05L241.254,178.743L240.98,178.437L240.704,178.133L240.427,177.83L240.148,177.529L239.868,177.229L239.586,176.931L239.303,176.634L239.018,176.338L238.732,176.044L238.444,175.751L238.155,175.46L237.865,175.17L237.573,174.882L237.279,174.595L236.984,174.31L236.688,174.026L236.39,173.743L236.091,173.462L235.79,173.183L235.488,172.905L235.184,172.629L234.88,172.354L234.573,172.08L234.265,171.808L233.956,171.538L233.646,171.269L233.334,171.002L233.021,170.736L232.706,170.472L232.39,170.21L232.073,169.949L231.754,169.689L231.434,169.431L231.113,169.175L230.791,168.92L230.467,168.667L230.141,168.416L229.815,168.166L229.487,167.918L229.158,167.671L228.827,167.426L228.496,167.183L228.163,166.941L227.828,166.701L227.493,166.463L227.156,166.226L226.818,165.991L226.479,165.758L226.138,165.526L225.796,165.296L225.453,165.067L225.109,164.841L224.763,164.616L224.417,164.393L224.069,164.171L223.72,163.951L223.369,163.733L223.018,163.517L222.665,163.302L222.312,163.089L221.956,162.878L221.6,162.669L221.243,162.461L220.885,162.255L220.525,162.051L220.164,161.849L219.802,161.648L219.439,161.45L219.075,161.253L218.71,161.058L218.343,160.864L217.976,160.673L217.607,160.483L217.238,160.295L216.867,160.109L216.495,159.925L216.122,159.743L215.748,159.562L215.373,159.383L214.997,159.207L214.62,159.032L214.241,158.859L213.862,158.688L213.482,158.518L213.101,158.351L212.718,158.185L212.335,158.022L211.95,157.86L211.565,157.7L211.179,157.542L210.791,157.386L210.403,157.232L210.013,157.08L209.623,156.93L209.232,156.782L208.839,156.636L208.446,156.491L208.052,156.349L207.657,156.209L207.261,156.07L206.864,155.934L206.466,155.799L206.067,155.667L205.667,155.537L205.266,155.408L204.865,155.282L204.462,155.157L204.059,155.035L203.654,154.915L203.249,154.796L202.843,154.68L202.436,154.566L202.028,154.454L201.619,154.344L201.21,154.236L200.799,154.13L200.388,154.026L199.976,153.924L199.563,153.824L199.149,153.727L198.734,153.631L198.319,153.538L197.902,153.446L197.485,153.357L197.067,153.27L196.648,153.185L196.229,153.102L195.808,153.022L195.387,152.943L194.965,152.867L194.543,152.792L194.119,152.72L193.695,152.651L193.27,152.583L192.844,152.517L192.418,152.454L191.991,152.393L191.563,152.334L191.134,152.277L190.704,152.223L190.274,152.17L189.843,152.12L189.412,152.072L188.979,152.027L188.546,151.983L188.113,151.942L187.678,151.903L187.243,151.867L186.807,151.832L186.371,151.8L185.934,151.771L185.496,151.743L185.057,151.718L184.618,151.695L184.178,151.674L183.738,151.656L183.297,151.64L182.855,151.627L182.413,151.615L181.97,151.606L181.535,151.6L181.086,151.597L180.629,151.596L180.174,151.598L179.719,151.602L179.265,151.609L178.811,151.618L178.358,151.63L177.906,151.644L177.454,151.661L177.003,151.68L176.553,151.701L176.103,151.725L175.654,151.751L175.206,151.78L174.759,151.811L174.312,151.845L173.866,151.881L173.42,151.919L172.976,151.96L172.532,152.003L172.088,152.048L171.646,152.096L171.204,152.146L170.763,152.198L170.323,152.253L169.883,152.31L169.445,152.37L169.007,152.432L168.57,152.496L168.133,152.562L167.698,152.631L167.263,152.702L166.829,152.775L166.395,152.851L165.963,152.929L165.531,153.009L165.101,153.091L164.671,153.176L164.241,153.263L163.813,153.352L163.386,153.443L162.959,153.537L162.533,153.633L162.108,153.731L161.684,153.831L161.261,153.934L160.838,154.038L160.417,154.145L159.996,154.254L159.577,154.366L159.158,154.479L158.74,154.595L158.323,154.713L157.907,154.833L157.491,154.955L157.077,155.079L156.664,155.205L156.251,155.334L155.84,155.465L155.429,155.598L155.019,155.733L154.611,155.87L154.203,156.009L153.796,156.15L153.39,156.293L152.986,156.439L152.582,156.586L152.179,156.736L151.777,156.888L151.376,157.042L150.976,157.197L150.578,157.355L150.18,157.515L149.783,157.677L149.387,157.841L148.992,158.007L148.599,158.175L148.206,158.346L147.814,158.518L147.424,158.692L147.034,158.868L146.646,159.046L146.259,159.226L145.872,159.408L145.487,159.592L145.103,159.778L144.72,159.966L144.338,160.156L143.957,160.348L143.578,160.542L143.199,160.738L142.822,160.936L142.445,161.135L142.07,161.337L141.696,161.541L141.323,161.746L140.952,161.953L140.581,162.163L140.212,162.374L139.844,162.587L139.477,162.802L139.111,163.018L138.746,163.237L138.383,163.458L138.021,163.68L137.659,163.904L137.3,164.13L136.941,164.358L136.584,164.588L136.228,164.82L135.873,165.053L135.519,165.288L135.167,165.525L134.816,165.764L134.466,166.005L134.118,166.247L133.77,166.491L133.424,166.737L133.08,166.985L132.736,167.235L132.394,167.486L132.053,167.739L131.714,167.994L131.376,168.251L131.039,168.509L130.704,168.769L130.37,169.031L124.983,173.296L120.749,171.422L120.29,164.662L120.266,164.337L120.241,164.012L120.213,163.688L120.183,163.364L120.151,163.041L120.118,162.719L120.082,162.398L120.045,162.076L120.006,161.756L119.965,161.436L119.922,161.117L119.877,160.798L119.83,160.48L119.782,160.163L119.731,159.846L119.679,159.53L119.625,159.214L119.569,158.899L119.511,158.585L119.452,158.271L119.39,157.959L119.327,157.646L119.262,157.335L119.196,157.024L119.127,156.714L119.057,156.404L118.985,156.095L118.911,155.787L118.835,155.48L118.758,155.173L118.678,154.867L118.598,154.562L118.515,154.257L118.431,153.953L118.344,153.65L118.256,153.348L118.167,153.046L118.076,152.745L117.983,152.445L117.888,152.145L117.791,151.847L117.693,151.549L117.593,151.252L117.492,150.955L117.389,150.66L117.284,150.365L117.177,150.071L117.069,149.778L116.959,149.485L116.848,149.194L116.735,148.903L116.62,148.613L116.503,148.324L116.385,148.036L116.266,147.748L116.144,147.461L116.022,147.176L115.897,146.891L115.771,146.607L115.643,146.323L115.514,146.041L115.383,145.76L115.25,145.479L115.116,145.199L114.981,144.92L114.844,144.642L114.705,144.365L114.565,144.089L114.423,143.814L114.279,143.54L114.134,143.266L113.988,142.994L113.84,142.722L113.69,142.452L113.539,142.182L113.387,141.913L113.233,141.646L113.077,141.379L112.92,141.113L112.762,140.848L112.602,140.584L112.44,140.322L112.277,140.06L112.113,139.799L111.947,139.539L111.78,139.28L111.611,139.022L111.441,138.766L111.269,138.51L111.096,138.255L110.922,138.001L110.746,137.749L110.568,137.497L110.39,137.247L110.209,136.997L110.028,136.749L109.845,136.501L109.661,136.255L109.475,136.01L109.288,135.766L109.1,135.523L108.91,135.281L108.719,135.04L108.526,134.8L108.332,134.562L108.137,134.324L107.941,134.088L107.743,133.853L107.544,133.619L107.343,133.386L107.141,133.154L106.938,132.924L106.734,132.695L106.528,132.466L106.321,132.239L106.113,132.013L105.903,131.789L105.693,131.565L105.481,131.343L105.267,131.122L105.053,130.902L104.837,130.684L104.62,130.466L104.401,130.25L104.182,130.035L103.961,129.822L103.739,129.609L103.516,129.398L103.292,129.188L103.066,128.98L102.839,128.773L102.611,128.567L102.382,128.362L102.152,128.158L101.92,127.956L101.688,127.755L101.454,127.556L101.219,127.357L100.983,127.161L100.746,126.965L100.507,126.771L100.268,126.578L100.027,126.386L99.785,126.196L99.543,126.007L99.299,125.82L99.053,125.634L98.807,125.449L98.56,125.265L98.312,125.083L98.062,124.903L97.812,124.724L97.56,124.546L97.308,124.369L97.054,124.194L96.799,124.021L96.544,123.849L96.287,123.678L96.029,123.509L95.77,123.341L95.51,123.175L95.25,123.01L94.988,122.846L94.725,122.684L94.461,122.524L94.196,122.365L93.93,122.207L93.663,122.051L93.396,121.896L93.127,121.743L92.857,121.592L92.587,121.442L92.315,121.293L92.042,121.146L91.769,121L91.494,120.856L91.219,120.714L90.943,120.573L90.666,120.434L90.388,120.296L90.109,120.16L89.829,120.025L89.548,119.892L89.266,119.76L88.984,119.631L88.7,119.502L88.416,119.375L88.131,119.25L87.845,119.127L87.558,119.005L87.27,118.884L86.981,118.766L86.692,118.649L86.402,118.533L86.111,118.419L85.819,118.307L85.526,118.197L85.233,118.088L84.938,117.981L84.643,117.875L84.347,117.771L84.05,117.669L83.753,117.569L83.455,117.47L83.156,117.373L82.856,117.277L82.555,117.183L82.254,117.091L81.952,117.001L81.649,116.913L81.345,116.826L81.041,116.741L80.736,116.657L80.43,116.576L80.123,116.496L79.816,116.418L79.508,116.341L79.2,116.267L78.89,116.194L78.58,116.123L78.269,116.053L77.958,115.986L77.646,115.92L77.333,115.856L77.019,115.794L76.705,115.734L76.39,115.675L76.075,115.619L75.759,115.564L75.442,115.511L75.125,115.46L74.806,115.411L74.488,115.363L74.168,115.318L73.848,115.274L73.528,115.232L73.207,115.192L72.885,115.154L72.562,115.118L72.239,115.083L71.916,115.051L71.591,115.02L71.266,114.992L70.941,114.965L70.615,114.94L70.288,114.917L69.961,114.896L69.633,114.878L69.305,114.86L68.976,114.845L68.647,114.832L68.317,114.821L67.986,114.812L67.655,114.805L67.326,114.8L66.979,114.796L66.631,114.796L66.284,114.797L65.937,114.8L65.591,114.806L65.246,114.814L64.901,114.824L64.556,114.836L64.213,114.851L63.869,114.867L63.527,114.886L63.185,114.907L62.844,114.93L62.503,114.955L62.163,114.982L61.823,115.011L61.485,115.043L61.146,115.076L60.809,115.112L60.472,115.15L60.136,115.19L59.8,115.231L59.465,115.275L59.131,115.321L58.797,115.369L58.464,115.42L58.132,115.472L57.801,115.526L57.47,115.582L57.14,115.64L56.81,115.701L56.481,115.763L56.153,115.827L55.826,115.893L55.5,115.962L55.174,116.032L54.849,116.104L54.524,116.178L54.201,116.254L53.878,116.332L53.556,116.412L53.235,116.494L52.914,116.578L52.595,116.664L52.276,116.752L51.958,116.842L51.64,116.933L51.324,117.027L51.008,117.122L50.693,117.219L50.379,117.318L50.066,117.419L49.753,117.522L49.442,117.627L49.131,117.734L48.821,117.842L48.512,117.953L48.204,118.065L47.897,118.179L47.59,118.295L47.285,118.412L46.98,118.532L46.676,118.653L46.373,118.776L46.072,118.901L45.771,119.028L45.47,119.156L45.171,119.287L44.873,119.419L44.576,119.552L44.28,119.688L43.984,119.825L43.69,119.964L43.396,120.105L43.104,120.248L42.812,120.392L42.522,120.538L42.232,120.686L41.944,120.835L41.656,120.986L41.37,121.139L41.084,121.293L40.8,121.449L40.517,121.607L40.234,121.767L39.953,121.928L39.673,122.091L39.393,122.255L39.115,122.421L38.838,122.589L38.562,122.758L38.287,122.929L38.014,123.102L37.741,123.276L37.469,123.452L37.199,123.63L36.929,123.809L36.661,123.989L36.394,124.171L36.128,124.355L35.863,124.54L35.6,124.727L35.337,124.916L35.076,125.106L34.816,125.297L34.557,125.49L34.299,125.685L34.043,125.881L33.787,126.079L33.533,126.278L33.28,126.478L33.028,126.68L32.778,126.884L32.529,127.089L32.281,127.296L32.034,127.504L31.788,127.713L31.544,127.924L31.301,128.136L31.06,128.35L30.819,128.565L30.58,128.782L30.342,129L30.106,129.22L29.871,129.441L29.637,129.663L29.404,129.887L29.173,130.112L28.943,130.338L28.715,130.566L28.488,130.795L28.262,131.026L28.038,131.257L27.815,131.491L27.593,131.725L27.373,131.961L27.154,132.198L26.937,132.437L26.72,132.677L26.506,132.918L26.293,133.16L26.081,133.404L25.871,133.649L25.662,133.895L25.454,134.143L25.248,134.392L25.044,134.642L24.841,134.893L24.639,135.146L24.439,135.4L24.241,135.655L24.043,135.911L23.848,136.168L23.654,136.427L23.461,136.687L23.27,136.948L23.081,137.21L22.893,137.474L22.706,137.738L22.522,138.004L22.338,138.271L22.157,138.539L21.976,138.808L21.798,139.079L21.621,139.35L21.446,139.623L21.272,139.897L21.1,140.171L20.929,140.447L20.76,140.725L20.593,141.003L20.427,141.282L20.263,141.562L20.101,141.844L19.94,142.126L19.781,142.41L19.623,142.694L19.467,142.98L19.313,143.267L19.161,143.554L19.01,143.843L18.861,144.133L18.714,144.424L18.568,144.715L18.424,145.008L18.282,145.302L18.142,145.597L18.003,145.892L17.866,146.189L17.731,146.487L17.597,146.785L17.466,147.085L17.336,147.386L17.208,147.687L17.081,147.99L16.957,148.293L16.834,148.597L16.713,148.902L16.594,149.209L16.476,149.516L16.361,149.823L16.247,150.132L16.135,150.442L16.025,150.753L15.917,151.064L15.811,151.376L15.706,151.69L15.604,152.004L15.503,152.318L15.404,152.634L15.307,152.951L15.212,153.268L15.119,153.586L15.027,153.905L14.938,154.225L14.851,154.546L14.765,154.867L14.681,155.19L14.6,155.513L14.52,155.837L14.442,156.161L14.366,156.487L14.293,156.813L14.221,157.14L14.151,157.468L14.083,157.796L14.017,158.125L13.953,158.455L13.891,158.786L13.831,159.117L13.773,159.449L13.717,159.782L13.663,160.116L13.611,160.45L13.562,160.785L13.514,161.121L13.468,161.457L13.425,161.794L13.383,162.132L13.343,162.47L13.306,162.809L13.271,163.149L13.237,163.49L13.206,163.831L13.177,164.172L13.15,164.515L13.126,164.858L13.103,165.201L13.083,165.546L13.064,165.891L13.048,166.236L13.034,166.582L13.022,166.929L13.012,167.276L13.005,167.624L13,167.946L13,174.942L11.906,175.86L5.604,174.746L5.268,174.689L4.929,174.632L4.59,174.578L4.249,174.525L3.908,174.473L3.565,174.423L3.221,174.375L2.876,174.328L2.53,174.283L2.183,174.24L1.835,174.198L1.486,174.157L1.137,174.119L0.786,174.081L0.435,174.046L0.083,174.012L-0.269,173.98L-0.622,173.949L-0.975,173.92L-1.329,173.893L-1.684,173.867L-2.039,173.843L-2.394,173.82L-2.75,173.799L-3.106,173.78L-3.462,173.762L-3.819,173.746L-4.176,173.732L-4.532,173.719L-4.889,173.708L-5.193,173.7L-5.571,173.698L-5.996,173.699L-6.421,173.702L-6.845,173.708L-7.268,173.717L-7.69,173.729L-8.112,173.743L-8.533,173.76L-8.954,173.779L-9.373,173.801L-9.792,173.826L-10.21,173.853L-10.628,173.883L-11.045,173.915L-11.461,173.95L-11.876,173.988L-12.291,174.028L-12.704,174.071L-13.117,174.116L-13.53,174.164L-13.941,174.214L-14.352,174.267L-14.761,174.322L-15.171,174.38L-15.579,174.441L-15.986,174.504L-16.393,174.569L-16.799,174.637L-17.203,174.707L-17.608,174.78L-18.011,174.855L-18.413,174.933L-18.815,175.013L-19.215,175.095L-19.615,175.18L-20.014,175.268L-20.412,175.357L-20.809,175.449L-21.205,175.544L-21.6,175.641L-21.994,175.74L-22.388,175.842L-22.78,175.946L-23.172,176.052L-23.562,176.161L-23.952,176.272L-24.34,176.386L-24.728,176.501L-25.115,176.619L-25.5,176.74L-25.885,176.862L-26.268,176.987L-26.651,177.114L-27.033,177.244L-27.413,177.376L-27.793,177.51L-28.171,177.646L-28.549,177.784L-28.925,177.925L-29.3,178.068L-29.674,178.213L-30.048,178.36L-30.42,178.51L-30.79,178.662L-31.16,178.816L-31.529,178.972L-31.897,179.13L-32.263,179.291L-32.628,179.453L-32.992,179.618L-33.355,179.785L-33.717,179.954L-34.078,180.125L-34.437,180.299L-34.796,180.474L-35.153,180.652L-35.508,180.831L-35.863,181.013L-36.217,181.197L-36.569,181.383L-36.92,181.57L-37.269,181.76L-37.618,181.952L-37.965,182.146L-38.311,182.343L-38.656,182.541L-38.999,182.741L-39.341,182.943L-39.682,183.147L-40.021,183.353L-40.359,183.561L-40.696,183.772L-41.031,183.984L-41.365,184.198L-41.698,184.414L-42.03,184.632L-42.36,184.851L-42.688,185.073L-43.015,185.297L-43.341,185.523L-43.666,185.75L-43.989,185.98L-44.31,186.211L-44.63,186.444L-44.949,186.679L-45.266,186.916L-45.582,187.155L-45.897,187.396L-46.209,187.638L-46.521,187.883L-46.831,188.129L-47.139,188.377L-47.446,188.627L-47.751,188.878L-48.055,189.132L-48.358,189.387L-48.658,189.644L-48.958,189.902L-49.255,190.163L-49.551,190.425L-49.846,190.689L-50.139,190.955L-50.43,191.222L-50.72,191.492L-51.008,191.762L-51.295,192.035L-51.58,192.309L-51.863,192.585L-52.145,192.863L-52.424,193.142L-52.703,193.423L-52.979,193.706L-53.254,193.99L-53.528,194.276L-53.799,194.564L-54.069,194.853L-54.337,195.144L-54.604,195.436L-54.869,195.73L-55.132,196.026L-55.393,196.323L-55.653,196.622L-55.91,196.922L-56.166,197.224L-56.421,197.527L-56.673,197.832L-56.924,198.139L-57.172,198.447L-57.42,198.756L-57.665,199.067L-57.908,199.38L-58.15,199.694L-58.389,200.009L-58.627,200.326L-58.863,200.645L-59.097,200.965L-59.33,201.286L-59.56,201.609L-59.789,201.933L-60.015,202.259L-60.24,202.586L-60.463,202.914L-60.684,203.244L-60.903,203.575L-61.119,203.908L-61.335,204.242L-61.548,204.578L-61.759,204.914L-61.968,205.252L-62.175,205.592L-62.38,205.933L-62.583,206.275L-62.785,206.618L-62.984,206.963L-63.181,207.309L-63.376,207.657L-63.569,208.005L-63.76,208.355L-63.949,208.706L-64.136,209.059L-64.321,209.413L-64.503,209.768L-64.684,210.124L-64.863,210.481L-65.039,210.84L-65.214,211.2L-65.386,211.561L-65.556,211.923L-65.724,212.287L-65.89,212.652L-66.053,213.018L-66.215,213.385L-66.374,213.753L-66.532,214.122L-66.687,214.493L-66.839,214.864L-66.99,215.237L-67.139,215.611L-67.285,215.986L-67.429,216.362L-67.571,216.739L-67.71,217.118L-67.847,217.497L-67.982,217.878L-68.115,218.259L-68.246,218.642L-68.374,219.026L-68.5,219.41L-68.624,219.796L-68.745,220.183L-68.864,220.571L-68.981,220.96L-69.095,221.35L-69.207,221.741L-69.317,222.133L-69.424,222.525L-69.529,222.919L-69.632,223.314L-69.732,223.71L-69.83,224.107L-69.926,224.505L-70.019,224.903L-70.109,225.303L-70.198,225.703L-70.284,226.105L-70.367,226.507L-70.448,226.911L-70.527,227.315L-70.603,227.72L-70.677,228.126L-70.748,228.533L-70.816,228.941L-70.883,229.35L-70.946,229.759L-71.008,230.17L-71.066,230.581L-71.123,230.993L-71.176,231.406L-71.227,231.82L-71.276,232.234L-71.322,232.65L-71.365,233.066L-71.406,233.483L-71.445,233.901L-71.48,234.32L-71.514,234.739L-71.544,235.159L-71.572,235.58L-71.597,236.002L-71.62,236.425L-71.64,236.848L-71.657,237.272L-71.672,237.697L-71.684,238.122L-71.694,238.549L-71.7,238.968L-71.703,239.387L-71.703,239.814L-71.701,240.239L-71.696,240.664L-71.688,241.089L-71.678,241.512L-71.665,241.935L-71.649,242.357L-71.63,242.779L-71.609,243.199L-71.586,243.619L-71.559,244.039L-71.531,244.457L-71.499,244.875L-71.465,245.292L-71.428,245.708L-71.389,246.124L-71.347,246.539L-71.303,246.952L-71.256,247.366L-71.207,247.778L-71.155,248.19L-71.1,248.6L-71.043,249.01L-70.984,249.419L-70.922,249.828L-70.857,250.235L-70.79,250.642L-70.721,251.048L-70.649,251.452L-70.575,251.857L-70.498,252.26L-70.418,252.662L-70.337,253.063L-70.253,253.464L-70.166,253.864L-70.077,254.262L-69.986,254.66L-69.892,255.057L-69.796,255.453L-69.697,255.848L-69.596,256.242L-69.493,256.635L-69.387,257.027L-69.279,257.418L-69.169,257.809L-69.056,258.198L-68.941,258.586L-68.824,258.973L-68.704,259.36L-68.583,259.745L-68.458,260.129L-68.332,260.512L-68.203,260.894L-68.072,261.275L-67.939,261.656L-67.803,262.035L-67.665,262.412L-67.525,262.789L-67.383,263.165L-67.238,263.54L-67.092,263.913L-66.943,264.286L-66.792,264.657L-66.638,265.028L-66.483,265.397L-66.325,265.765L-66.165,266.132L-66.003,266.497L-65.839,266.862L-65.673,267.225L-65.504,267.587L-65.334,267.948L-65.161,268.308L-64.986,268.667L-64.809,269.024L-64.63,269.38L-64.449,269.735L-64.266,270.089L-64.08,270.442L-63.893,270.793L-63.704,271.143L-63.512,271.492L-63.319,271.839L-63.123,272.185L-62.926,272.53L-62.726,272.874L-62.524,273.216L-62.321,273.557L-62.115,273.897L-61.907,274.235L-61.698,274.572L-61.486,274.907L-61.273,275.242L-61.057,275.575L-60.84,275.906L-60.62,276.236L-60.399,276.565L-60.176,276.892L-59.951,277.218L-59.724,277.543L-59.495,277.866L-59.264,278.188L-59.031,278.508L-58.796,278.827L-58.56,279.144L-58.322,279.46L-58.081,279.774L-57.839,280.087L-57.595,280.399L-57.35,280.709L-57.102,281.017L-56.853,281.324L-56.602,281.629L-56.349,281.933L-56.094,282.236L-55.837,282.536L-55.579,282.835L-55.319,283.133L-55.057,283.429L-54.794,283.724L-54.528,284.017L-54.261,284.308L-53.992,284.597L-53.722,284.886L-53.45,285.172L-53.176,285.457L-52.9,285.74L-52.623,286.021L-52.344,286.301L-52.063,286.58L-51.781,286.856L-51.497,287.131L-51.212,287.404L-50.924,287.675L-50.636,287.945L-50.345,288.213L-50.053,288.479L-49.759,288.744L-49.464,289.007L-49.167,289.268L-48.869,289.527L-48.569,289.785L-48.268,290.04L-47.964,290.294L-47.66,290.547L-47.354,290.797L-47.046,291.046L-46.737,291.292L-46.426,291.537L-46.114,291.78L-45.8,292.022L-45.485,292.261L-45.168,292.499L-44.85,292.734L-44.531,292.968L-44.21,293.2L-43.887,293.43L-43.563,293.658L-43.238,293.884L-42.911,294.109L-42.583,294.331L-42.253,294.552L-41.922,294.77L-41.59,294.987L-41.256,295.201L-40.921,295.414L-40.584,295.625L-40.247,295.833L-39.907,296.04L-39.567,296.245L-39.225,296.447L-38.882,296.648L-38.537,296.847L-38.191,297.044L-37.844,297.238L-37.496,297.431L-37.146,297.621L-36.795,297.81L-36.443,297.996L-36.089,298.18L-35.735,298.363L-35.379,298.543L-35.022,298.721L-34.663,298.897L-34.303,299.071L-33.943,299.242L-33.581,299.412L-33.217,299.579L-32.853,299.744L-32.487,299.908L-32.12,300.068L-31.752,300.227L-31.383,300.384L-31.013,300.538L-30.641,300.69L-30.269,300.84L-29.895,300.988L-29.52,301.134L-29.144,301.277L-28.767,301.418L-28.389,301.557L-28.01,301.694L-27.63,301.828L-27.248,301.96L-26.866,302.09L-26.482,302.217L-26.098,302.343L-25.712,302.466L-25.326,302.586L-24.938,302.705L-24.549,302.821L-24.159,302.934L-23.769,303.045L-23.377,303.154L-22.984,303.261L-22.59,303.365L-22.196,303.467L-21.8,303.567L-21.404,303.664L-21.006,303.759L-20.607,303.851L-20.208,303.941L-19.808,304.028L-19.406,304.113L-19.004,304.196L-18.601,304.276L-18.197,304.354L-17.792,304.429L-17.386,304.502L-16.979,304.572L-16.571,304.64L-16.163,304.705L-15.753,304.768L-15.343,304.828L-14.932,304.886L-14.52,304.941L-14.107,304.994L-13.693,305.044L-13.279,305.092L-12.864,305.137L-12.447,305.18L-12.03,305.22L-11.613,305.257L-11.194,305.292L-10.775,305.324L-10.355,305.353L-9.934,305.38L-9.512,305.405L-9.09,305.426L-8.667,305.445L-8.243,305.462L-7.818,305.475L-7.393,305.486L-6.966,305.495L-6.541,305.5L-6.292,305.502L-6.033,305.503L-5.775,305.502L-5.517,305.501L-5.26,305.499L-5.003,305.496L-4.746,305.491L-4.49,305.486L-4.233,305.48L-3.977,305.473L-3.721,305.465L-3.466,305.456L-3.21,305.446L-2.955,305.435L-2.701,305.424L-2.446,305.411L-2.192,305.397L-1.938,305.382L-1.685,305.367L-1.431,305.35L-1.178,305.333L-0.926,305.314L-0.673,305.295L-0.421,305.275L-0.169,305.253L0.082,305.231L0.334,305.208L0.585,305.184L0.835,305.159L1.086,305.133L1.336,305.106L1.586,305.079L1.835,305.05L2.084,305.02L2.333,304.99L2.582,304.958L2.83,304.926L3.078,304.893L3.325,304.859L3.573,304.824L3.82,304.788L4.067,304.751L4.313,304.713L4.559,304.674L4.805,304.635L5.05,304.594L5.295,304.553L5.54,304.51L5.785,304.467L6.029,304.423L6.273,304.378L6.516,304.332L6.759,304.285L7.002,304.238L7.245,304.189L7.487,304.14L7.729,304.089L7.97,304.038L8.212,303.986L8.452,303.933L8.693,303.879L8.933,303.825L9.173,303.769L9.413,303.713L9.652,303.655L9.891,303.597L10.129,303.538L10.367,303.478L10.605,303.417L10.843,303.356L11.08,303.293L11.316,303.23L11.553,303.166L11.789,303.1L12.025,303.034L12.26,302.968L12.495,302.9L12.73,302.832L12.964,302.762L13.198,302.692L13.431,302.621L13.664,302.549L13.897,302.476L14.13,302.403L14.362,302.328L14.594,302.253L14.825,302.177L15.056,302.1L15.287,302.022L15.517,301.944L15.747,301.864L15.976,301.784L16.205,301.703L16.434,301.621L16.662,301.538L16.89,301.455L17.118,301.37L17.345,301.285L17.572,301.199L17.798,301.112L18.024,301.025L18.25,300.936L18.475,300.847L18.7,300.757L18.924,300.666L19.148,300.574L19.372,300.482L19.595,300.388L19.818,300.294L20.04,300.199L20.263,300.104L20.484,300.007L20.705,299.91L20.926,299.812L21.147,299.713L21.367,299.613L21.586,299.512L21.806,299.411L22.024,299.309L22.242,299.206L22.46,299.103L22.678,298.998L22.895,298.893L23.112,298.787L23.328,298.68L23.544,298.572L23.759,298.464L23.984,298.35L29.416,309.05L29.172,309.174L28.917,309.302L28.662,309.43L28.406,309.556L28.149,309.681L27.893,309.806L27.635,309.929L27.377,310.052L27.119,310.174L26.86,310.295L26.601,310.415L26.341,310.533L26.08,310.652L25.819,310.769L25.558,310.885L25.296,311L25.034,311.114L24.771,311.228L24.508,311.34L24.244,311.451L23.98,311.562L23.715,311.671L23.45,311.78L23.184,311.888L22.918,311.994L22.651,312.1L22.384,312.205L22.116,312.308L21.848,312.411L21.58,312.513L21.311,312.614L21.041,312.714L20.771,312.813L20.501,312.911L20.23,313.008L19.959,313.104L19.687,313.199L19.415,313.293L19.142,313.386L18.869,313.478L18.596,313.569L18.322,313.659L18.047,313.748L17.772,313.837L17.497,313.924L17.221,314.01L16.945,314.095L16.669,314.179L16.392,314.262L16.114,314.344L15.836,314.425L15.558,314.506L15.28,314.585L15.001,314.663L14.721,314.74L14.441,314.816L14.161,314.891L13.88,314.965L13.599,315.038L13.318,315.11L13.036,315.181L12.753,315.251L12.47,315.32L12.187,315.387L11.904,315.454L11.62,315.52L11.336,315.585L11.051,315.648L10.766,315.711L10.481,315.773L10.195,315.833L9.909,315.893L9.622,315.951L9.335,316.009L9.048,316.065L8.76,316.12L8.472,316.175L8.184,316.228L7.895,316.28L7.606,316.331L7.317,316.381L7.027,316.43L6.737,316.478L6.446,316.525L6.155,316.571L5.864,316.615L5.572,316.659L5.28,316.701L4.988,316.743L4.696,316.783L4.403,316.823L4.109,316.861L3.816,316.898L3.522,316.934L3.228,316.969L2.933,317.003L2.638,317.035L2.343,317.067L2.048,317.098L1.752,317.127L1.456,317.156L1.159,317.183L0.862,317.209L0.565,317.234L0.268,317.258L-0.03,317.281L-0.328,317.303L-0.626,317.323L-0.924,317.343L-1.223,317.361L-1.522,317.378L-1.822,317.395L-2.122,317.41L-2.421,317.424L-2.722,317.436L-3.022,317.448L-3.323,317.459L-3.624,317.468L-3.926,317.476L-4.227,317.483L-4.529,317.49L-4.831,317.494L-5.134,317.498L-5.437,317.501L-5.74,317.502L-6.043,317.503Z" style="fill:white;"/>
            </g>
        </g>
    </g>
</svg>
