<?xml version="1.0" encoding="utf-8"?>
<!-- Generator: Adobe Illustrator 18.1.1, SVG Export Plug-In . SVG Version: 6.00 Build 0)  -->
<svg version="1.1" xmlns="http://www.w3.org/2000/svg" xmlns:xlink="http://www.w3.org/1999/xlink" x="0px" y="0px"
	 viewBox="0 0 426 220.7" enable-background="new 0 0 426 220.7" xml:space="preserve">
<g id="Warstwa_2" display="none">
	<rect x="-145.7" y="-167" display="inline" fill="#424D52" width="736" height="553"/>
</g>
<g id="Warstwa_1">
	<g>
		<path fill="#777" d="M80.7,123.9c-5.4,0-9.6,1.7-12.7,5.2c-3.1,3.4-4.6,8.1-4.6,14.1c0,6.1,1.5,10.9,4.4,14.2
			c2.9,3.4,7.1,5.1,12.5,5.1c3.6,0,6.9-0.5,9.9-1.4v2.6c-2.8,1-6.4,1.5-10.6,1.5c-6,0-10.8-1.9-14.2-5.8c-3.5-3.9-5.2-9.3-5.2-16.3
			c0-4.4,0.8-8.2,2.5-11.5c1.7-3.3,4-5.9,7.1-7.7c3.1-1.8,6.7-2.7,10.8-2.7c4.2,0,7.9,0.8,11.2,2.3l-1.2,2.7
			C87.4,124.6,84.1,123.9,80.7,123.9z"/>
		<path fill="#777" d="M101.9,164.6H99V119h2.9V164.6z"/>
		<path fill="#777" d="M138.9,148.6c0,5.2-1.3,9.3-3.8,12.2s-6,4.4-10.4,4.4c-2.8,0-5.3-0.7-7.4-2c-2.1-1.3-3.8-3.3-4.9-5.8
			c-1.1-2.5-1.7-5.4-1.7-8.7c0-5.2,1.3-9.2,3.8-12.1s6-4.4,10.4-4.4c4.4,0,7.8,1.5,10.3,4.4S138.9,143.5,138.9,148.6z M113.7,148.6
			c0,4.4,1,7.8,2.9,10.2c1.9,2.5,4.6,3.7,8.2,3.7c3.5,0,6.2-1.2,8.2-3.7s2.9-5.9,2.9-10.2c0-4.4-1-7.8-2.9-10.2s-4.7-3.6-8.2-3.6
			c-3.5,0-6.2,1.2-8.1,3.6S113.7,144.2,113.7,148.6z"/>
		<path fill="#777" d="M150.2,132.8v20.6c0,3.2,0.7,5.5,2,7s3.4,2.2,6.3,2.2c3.8,0,6.6-1,8.4-2.9s2.7-5,2.7-9.3v-17.6h2.9v31.8
			h-2.5l-0.5-4.4h-0.2c-2.1,3.3-5.8,5-11,5c-7.2,0-10.9-3.9-10.9-11.6v-20.8H150.2z"/>
		<path fill="#777" d="M194.7,132.1c2.3,0,4.3,0.4,6,1.3s3.2,2.3,4.5,4.3h0.2c-0.1-2.5-0.2-4.9-0.2-7.2V119h2.9v45.6h-1.9
			l-0.7-4.9h-0.2c-2.4,3.6-5.9,5.4-10.4,5.4c-4.4,0-7.8-1.4-10.1-4.1s-3.5-6.7-3.5-12c0-5.5,1.2-9.7,3.5-12.6
			S190.3,132.1,194.7,132.1z M194.7,134.8c-3.5,0-6.1,1.2-7.8,3.7s-2.6,6-2.6,10.6c0,9,3.5,13.5,10.5,13.5c3.6,0,6.2-1,7.9-3.1
			s2.5-5.5,2.5-10.3v-0.5c0-4.9-0.8-8.5-2.5-10.6S198.4,134.8,194.7,134.8z"/>
		<path fill="#777" d="M237.6,164.6l-12.4-35.8H225c0.3,5.3,0.5,10.3,0.5,14.9v20.8h-6.4v-42.8h9.9l11.9,34.1h0.2l12.2-34.1h9.9
			v42.8h-6.7v-21.2c0-2.1,0.1-4.9,0.2-8.3s0.2-5.5,0.3-6.2h-0.2l-12.9,35.7H237.6z"/>
		<path fill="#777" d="M289.3,164.6h-7v-36.8h-12.6v-6h32.2v6h-12.6V164.6z"/>
		<path fill="#777" d="M335,164.6l-4.3-11.9h-16.4l-4.2,11.9h-7.4l16-43h7.6l16,43H335z M328.9,146.7l-4-11.7
			c-0.3-0.8-0.7-2-1.2-3.7s-0.9-2.9-1.1-3.7c-0.5,2.4-1.3,5-2.3,7.9l-3.9,11.2H328.9z"/>
	</g>
	<path fill="none" stroke="#383838" stroke-width="12" stroke-linecap="round" stroke-linejoin="round" stroke-miterlimit="10" d="
		M418,170.6c0.3-32-25.3-58.3-57.4-58.6c-3.1,0-6.1,0.2-9.1,0.6c-9.3-37.7-43.1-65.7-83.7-66.2c-20.9-0.2-40.1,6.9-55.3,19
		c-2-30.9-27.5-55.4-58.9-55.8c-33-0.4-60,26.1-60.4,59.1c0,0.3,0,0.7,0,1c-3.9-0.7-8-1.1-12.1-1.2C41.5,68.2,9,100,8.5,139.7
		c-0.4,39.7,31.4,72.2,71.1,72.6c12,0.1,23.3-2.7,33.3-7.8"/>
</g>
</svg>
