<?xml version="1.0" encoding="utf-8"?>
<!-- Generator: Adobe Illustrator 19.1.0, SVG Export Plug-In . SVG Version: 6.00 Build 0)  -->
<svg version="1.1" id="Layer_1" xmlns="http://www.w3.org/2000/svg" xmlns:xlink="http://www.w3.org/1999/xlink" x="0px" y="0px"
	 viewBox="-79 134 436.5 152.5" style="enable-background:new -79 134 436.5 152.5;" xml:space="preserve">
<style type="text/css">
	.st0{fill:#FFFFFF;}
</style>
<g>
	<g>
		<path class="st0" d="M-27.5,134h23.9v110.5c-12.2,2.3-21.2,3.3-31,3.3c-29.1,0-44.3-13.2-44.3-38.4c0-24.3,16.1-40.1,41.1-40.1
			c3.9,0,6.8,0.3,10.4,1.2C-27.5,170.4-27.5,134-27.5,134z M-27.5,189.6c-2.8-0.9-5.1-1.2-8.1-1.2c-12.1,0-19.1,7.4-19.1,20.5
			c0,12.7,6.7,19.7,18.9,19.7c2.6,0,4.8-0.2,8.2-0.6V189.6z"/>
		<path class="st0" d="M34.3,170.9v55.3c0,19.1-1.4,28.2-5.6,36.1c-3.9,7.6-9,12.4-19.5,17.7L-13,269.5c10.5-5,15.7-9.3,18.9-16
			c3.4-6.8,4.5-14.7,4.5-35.5v-47.1H34.3z M10.4,134.2h23.9v24.5H10.4V134.2z"/>
		<path class="st0" d="M48.7,176.3c10.5-5,20.6-7.1,31.6-7.1c12.2,0,20.3,3.3,23.9,9.6c2,3.6,2.6,8.2,2.6,18.1v48.5
			c-10.7,1.6-24.2,2.6-34.1,2.6c-20,0-29-7-29-22.5c0-16.7,11.9-24.5,41.2-27v-5.3c0-4.3-2.2-5.9-8.2-5.9c-8.8,0-18.8,2.5-28.1,7.3
			L48.7,176.3L48.7,176.3z M86.1,214.3c-15.8,1.6-20.9,4-20.9,10.2c0,4.6,2.9,6.8,9.5,6.8c3.6,0,6.8-0.3,11.5-1.1L86.1,214.3
			L86.1,214.3z"/>
		<path class="st0" d="M118.5,174.6c14.1-3.7,25.7-5.4,37.5-5.4c12.2,0,21.1,2.8,26.4,8.2c5,5.1,6.5,10.7,6.5,22.6v46.8H165V201
			c0-9.1-3.1-12.6-11.6-12.6c-3.3,0-6.2,0.3-11,1.7v56.7h-23.9V174.6z"/>
		<path class="st0" d="M198.1,259.9c8.4,4.3,16.7,6.4,25.6,6.4c15.7,0,22.3-6.4,22.3-21.5c0-0.2,0-0.3,0-0.5
			c-4.6,2.3-9.3,3.3-15.5,3.3c-20.9,0-34.3-13.8-34.3-35.7c0-27.1,19.7-42.5,54.6-42.5c10.2,0,19.7,1.1,31.2,3.4l-8.2,17.2
			c-6.4-1.2-0.5-0.2-5.3-0.6v2.5l0.3,10.1l0.2,13c0.2,3.3,0.2,6.5,0.3,9.8c0,2.9,0,4.3,0,6.5c0,20.5-1.7,30.1-6.8,38
			c-7.4,11.6-20.3,17.4-38.6,17.4c-9.3,0-17.4-1.4-25.7-4.7L198.1,259.9L198.1,259.9z M245.6,188.6c-0.3,0-0.6,0-0.8,0h-1.7
			c-4.6-0.2-10.1,1.1-13.8,3.4c-5.7,3.3-8.7,9.1-8.7,17.5c0,11.9,5.9,18.8,16.4,18.8c3.3,0,5.9-0.6,9-1.6V225v-6.5
			c0-2.8-0.2-5.9-0.2-9.1l-0.2-11l-0.2-7.9L245.6,188.6L245.6,188.6z"/>
		<path class="st0" d="M319.1,168.9c23.9,0,38.4,15,38.4,39.4c0,25-15.2,40.6-39.4,40.6c-23.9,0-38.6-15-38.6-39.2
			C279.5,184.5,294.7,168.9,319.1,168.9z M318.6,229.6c9.1,0,14.6-7.6,14.6-20.8c0-13-5.3-20.8-14.4-20.8c-9.5,0-14.9,7.6-14.9,20.8
			C303.9,222,309.3,229.6,318.6,229.6z"/>
	</g>
</g>
</svg>
